<?xml version="1.0" encoding="UTF-8" standalone="no"?>
<!DOCTYPE svg PUBLIC "-//W3C//DTD SVG 1.1//EN" "http://www.w3.org/Graphics/SVG/1.1/DTD/svg11.dtd">
<svg width="100%" height="100%" viewBox="0 0 2038 392" version="1.1" xmlns="http://www.w3.org/2000/svg" xmlns:xlink="http://www.w3.org/1999/xlink" xml:space="preserve" xmlns:serif="http://www.serif.com/" style="fill-rule:evenodd;clip-rule:evenodd;stroke-linecap:round;stroke-linejoin:round;stroke-miterlimit:1.5;">
    <g transform="matrix(1,0,0,1,-7194,-1227)">
        <g id="Belt" transform="matrix(1,0,0,1.01778,2314.04,-2516.96)">
            <rect x="4880.62" y="3679.51" width="2037.21" height="383.47" style="fill:none;"/>
            <clipPath id="_clip1">
                <rect x="4880.62" y="3679.51" width="2037.21" height="383.47"/>
            </clipPath>
            <g clip-path="url(#_clip1)">
                <g transform="matrix(1.40325,0,0,1.37874,2406.87,-571.415)">
                    <g>
                        <g transform="matrix(-1,0,0,1,4974.61,0.691028)">
                            <g id="Wing">
                                <g transform="matrix(0.712632,0,0,0.712632,475.158,432.546)">
                                    <path d="M2115.95,4022.39C2119.79,4029.58 2120.23,4036.77 2115.95,4043.96C2105.57,4047.23 2095.19,4048.95 2084.8,4048.9C2074.42,4048.95 2064.03,4047.23 2053.65,4043.96C2049.37,4036.77 2049.82,4029.58 2053.65,4022.39L2115.95,4022.39Z" style="fill:rgb(236,196,18);stroke:rgb(196,3,1);stroke-width:3.96px;"/>
                                </g>
                                <g transform="matrix(0.779711,0,0,0.526674,406.266,1511.57)">
                                    <path d="M2512.9,3294.25L2042.98,3306.92L1759.72,3283.4L1753.29,3200.61L1736.13,3235.53L1742.75,3355.46L2034.94,3413.54C2034.94,3413.54 2405.86,3443.29 2587.85,3426.04L2512.9,3294.25Z" style="fill:rgb(236,196,18);stroke:rgb(196,3,1);stroke-width:4.24px;"/>
                                </g>
                                <g transform="matrix(1,0,0,0.31478,204.093,2164.82)">
                                    <path d="M2179.57,3499.75L1793.2,3499.75L1797,3460.28L1794.11,3460.61L1788.84,3508.25L2180.74,3508.25L2179.57,3499.75Z" style="fill:rgb(196,3,1);"/>
                                </g>
                                <g transform="matrix(0.997725,0.0674214,-0.0212229,0.314064,70.7241,2032.4)">
                                    <path d="M2004.25,3499.75L1793.2,3499.75L1797,3460.28L1794.11,3460.61L1788.84,3508.25L2001.36,3508.25L2004.25,3499.75Z" style="fill:rgb(196,3,1);"/>
                                </g>
                            </g>
                            <g transform="matrix(0.290751,0,0,0.290751,1614.1,2289.34)">
                                <circle cx="2287.45" cy="3563.39" r="112.834" style="fill:rgb(236,196,18);stroke:rgb(196,3,1);stroke-width:7.15px;"/>
                            </g>
                        </g>
                        <g transform="matrix(1,0,0,1,2.92711,0.691028)">
                            <g id="Wing1" serif:id="Wing">
                                <g transform="matrix(0.712632,0,0,0.712632,475.158,432.546)">
                                    <path d="M2115.95,4022.39C2119.79,4029.58 2120.23,4036.77 2115.95,4043.96C2105.57,4047.23 2095.19,4048.95 2084.8,4048.9C2074.42,4048.95 2064.03,4047.23 2053.65,4043.96C2049.37,4036.77 2049.82,4029.58 2053.65,4022.39L2115.95,4022.39Z" style="fill:rgb(236,196,18);stroke:rgb(196,3,1);stroke-width:3.96px;"/>
                                </g>
                                <g transform="matrix(0.779711,0,0,0.526674,406.266,1511.57)">
                                    <path d="M2512.9,3294.25L2042.98,3306.92L1759.72,3283.4L1753.29,3200.61L1736.13,3235.53L1742.75,3355.46L2034.94,3413.54C2034.94,3413.54 2405.86,3443.29 2587.85,3426.04L2512.9,3294.25Z" style="fill:rgb(236,196,18);stroke:rgb(196,3,1);stroke-width:4.24px;"/>
                                </g>
                                <g transform="matrix(1,0,0,0.31478,204.093,2164.82)">
                                    <path d="M2179.57,3499.75L1793.2,3499.75L1797,3460.28L1794.11,3460.61L1788.84,3508.25L2180.74,3508.25L2179.57,3499.75Z" style="fill:rgb(196,3,1);"/>
                                </g>
                                <g transform="matrix(0.997725,0.0674214,-0.0212229,0.314064,70.7241,2032.4)">
                                    <path d="M2004.25,3499.75L1793.2,3499.75L1797,3460.28L1794.11,3460.61L1788.84,3508.25L2001.36,3508.25L2004.25,3499.75Z" style="fill:rgb(196,3,1);"/>
                                </g>
                            </g>
                            <g transform="matrix(0.290751,0,0,0.290751,1614.1,2289.34)">
                                <circle cx="2287.45" cy="3563.39" r="112.834" style="fill:rgb(236,196,18);stroke:rgb(196,3,1);stroke-width:7.15px;"/>
                            </g>
                        </g>
                        <g>
                            <g transform="matrix(0.999956,-0.00939825,0.00939825,0.999956,-176.913,-68.9745)">
                                <path d="M2534.91,3281.88L2356.16,3275.38L2349.43,3284.75L2512.24,3304.49L2534.91,3281.88Z" style="fill:rgb(236,196,18);stroke:rgb(196,3,1);stroke-width:2.82px;"/>
                            </g>
                            <g transform="matrix(-0.999956,-0.00939825,-0.00939825,0.999956,5154.45,-68.9745)">
                                <path d="M2534.91,3281.88L2356.16,3275.38L2349.43,3284.75L2512.24,3304.49L2534.91,3281.88Z" style="fill:rgb(236,196,18);stroke:rgb(196,3,1);stroke-width:2.82px;"/>
                            </g>
                            <g transform="matrix(1,0,0,0.477072,-126.66,1599.96)">
                                <path d="M2621.46,3134.77C2617.44,3105.6 2613.42,3108.89 2609.4,3134.77L2609.4,3295.07L2621.46,3295.07L2621.46,3134.77Z" style="fill:rgb(236,196,18);stroke:rgb(196,3,1);stroke-width:3.6px;"/>
                            </g>
                        </g>
                    </g>
                    <g transform="matrix(0.52701,0,0,0.52701,1217.18,1865.71)">
                        <g transform="matrix(1.83429,0,0,1.83429,2544.21,2804.72)">
                            <path d="M-0.174,-166.123C2.144,-165.041 2.1,-165.162 3.018,-164.494C3.843,-163.895 4.525,-163.129 5.244,-162.408C12.973,-154.647 20.569,-146.756 28.207,-138.905C32.758,-134.227 37.303,-129.543 41.844,-124.855C42.49,-124.188 43.086,-123.472 43.731,-122.802C44.137,-122.379 44.154,-122.054 43.748,-121.576C41.268,-118.662 38.824,-115.717 36.362,-112.785C27.084,-101.739 17.805,-90.694 8.524,-79.652C-0.219,-69.253 -8.966,-58.859 -17.709,-48.462C-27.192,-37.184 -36.672,-25.902 -46.161,-14.629C-53.356,-6.08 -60.561,2.459 -67.77,10.995C-68.84,12.262 -69.971,13.478 -71.043,14.743C-71.397,15.16 -71.613,15.126 -71.953,14.732C-74.971,11.23 -78.015,7.751 -81.027,4.245C-86.523,-2.147 -92.021,-8.534 -97.481,-14.955C-102.883,-21.307 -108.246,-27.693 -113.613,-34.074C-119.779,-41.402 -125.926,-48.746 -132.091,-56.074C-138.341,-63.504 -144.605,-70.922 -150.858,-78.349C-156.855,-85.471 -162.845,-92.6 -168.839,-99.725C-174.761,-106.766 -180.685,-113.805 -186.603,-120.848C-187.545,-121.97 -187.522,-121.971 -186.517,-123.055C-181.748,-128.2 -176.798,-133.171 -171.905,-138.195C-163.768,-146.548 -155.601,-154.871 -147.459,-163.221C-146.337,-164.371 -145.049,-165.207 -143.516,-165.676C-143.072,-165.813 -142.004,-166.123 -142.004,-166.123L-0.174,-166.123Z" style="fill:rgb(236,196,18);stroke:rgb(196,3,1);stroke-width:2.76px;stroke-linecap:butt;stroke-miterlimit:2;"/>
                        </g>
                        <g transform="matrix(2.02857,0,0,2.02857,-2467.55,-2819.26)">
                            <text x="2334.68px" y="2668.86px" style="font-family:'GunshipLaser', 'Gunship Laser';font-size:50px;fill:rgb(196,3,1);">FRC</text>
                        </g>
                        <g transform="matrix(1.21597,0,0,1.21597,-558.616,-449.201)">
                            <text x="2340.22px" y="2562.04px" style="font-family:'Gunship';font-size:50px;fill:rgb(196,3,1);">3255</text>
                        </g>
                    </g>
                </g>
            </g>
        </g>
    </g>
</svg>
