<?xml version="1.0" encoding="UTF-8" standalone="no"?>
<!DOCTYPE svg PUBLIC "-//W3C//DTD SVG 1.1//EN" "http://www.w3.org/Graphics/SVG/1.1/DTD/svg11.dtd">
<svg width="100%" height="100%" viewBox="0 0 2462 917" version="1.1" xmlns="http://www.w3.org/2000/svg" xmlns:xlink="http://www.w3.org/1999/xlink" xml:space="preserve" xmlns:serif="http://www.serif.com/" style="fill-rule:evenodd;clip-rule:evenodd;stroke-linejoin:round;stroke-miterlimit:2;">
    <g transform="matrix(1,0,0,1,-6982,0)">
        <g id="Chest" transform="matrix(1,0,0,1,5643.67,-1082.63)">
            <rect x="1338.91" y="1082.63" width="2461.39" height="916.618" style="fill:none;"/>
            <clipPath id="_clip1">
                <rect x="1338.91" y="1082.63" width="2461.39" height="916.618"/>
            </clipPath>
            <g clip-path="url(#_clip1)">
                <g id="main" transform="matrix(0.60106,0,0,0.60106,1064.89,123.943)">
                    <g id="SN-Logo.ai" serif:id="SN Logo.ai" transform="matrix(4.16667,0,0,4.16667,2500,2357.5)">
                        <g transform="matrix(1,0,0,1,-220.095,-183)">
                            <clipPath id="_clip2">
                                <rect x="0" y="0" width="440.189" height="366.001"/>
                            </clipPath>
                            <g clip-path="url(#_clip2)">
                                <rect id="Page-1" serif:id="Page 1" x="0" y="0" width="440.189" height="366.001" style="fill:none;"/>
                                <clipPath id="_clip3">
                                    <rect id="Page-11" serif:id="Page 1" x="0" y="0" width="440.189" height="366.001"/>
                                </clipPath>
                                <g clip-path="url(#_clip3)">
                                    <g id="Layer-1" serif:id="Layer 1">
                                        <g transform="matrix(1,0,0,1,350.992,338.72)">
                                            <path d="M0,-273.79L0,-155.617C0.531,-155.812 0.708,-156.195 0.962,-156.489C6.456,-162.875 11.937,-169.273 17.43,-175.659C29.431,-189.621 41.43,-203.586 53.456,-217.529C54.143,-218.322 54.165,-218.768 53.403,-219.544C44.561,-228.57 35.755,-237.634 26.946,-246.69C20.173,-253.649 13.432,-260.634 6.626,-267.557C4.467,-269.754 2.141,-271.785 0,-273.79M-31.434,-151.46C-31.342,-151.485 -31.253,-151.51 -31.161,-151.535L-31.161,-152.461C-31.161,-194.598 -31.165,-236.738 -31.136,-278.877C-31.135,-280.001 -31.448,-280.265 -32.537,-280.262C-43.895,-280.223 -55.252,-280.237 -66.608,-280.237C-75.237,-280.237 -83.868,-280.239 -92.495,-280.237C-93.848,-280.237 -93.855,-280.23 -93.253,-278.985C-91.611,-275.589 -89.96,-272.199 -88.317,-268.806C-77.649,-246.789 -66.987,-224.769 -56.318,-202.75C-49.705,-189.109 -43.088,-175.47 -36.471,-161.83C-34.794,-158.373 -33.113,-154.916 -31.434,-151.46M-98.223,-41.614C-98.092,-41.591 -97.957,-41.568 -97.823,-41.545C-97.454,-41.964 -97.079,-42.377 -96.714,-42.8C-92.924,-47.214 -89.137,-51.631 -85.343,-56.043C-70.57,-73.235 -55.797,-90.429 -41.008,-107.609C-40.514,-108.183 -40.451,-108.619 -40.785,-109.304C-46.825,-121.621 -52.836,-133.949 -58.856,-146.276C-64.543,-157.916 -70.232,-169.56 -75.921,-181.199C-82.998,-195.685 -90.077,-210.173 -97.167,-224.656C-97.321,-224.971 -97.362,-225.417 -97.897,-225.584C-97.929,-164.207 -97.784,-102.909 -98.223,-41.614M-238.645,-280.136C-238.983,-280.187 -239.131,-280.233 -239.278,-280.233C-243.813,-280.237 -248.348,-280.225 -252.883,-280.251C-253.529,-280.255 -253.918,-279.936 -254.319,-279.525C-260.659,-272.989 -267,-266.454 -273.35,-259.927C-286.332,-246.586 -299.321,-233.252 -312.3,-219.909C-313.696,-218.474 -313.9,-218.924 -312.429,-217.21C-307.256,-211.183 -302.066,-205.17 -296.89,-199.148C-282.328,-182.2 -267.769,-165.25 -253.211,-148.301C-241.709,-134.913 -230.209,-121.523 -218.705,-108.137C-211.256,-99.464 -203.794,-90.803 -196.37,-82.109C-195.743,-81.375 -195.107,-81.099 -194.195,-81.251C-192.652,-81.503 -191.092,-81.652 -189.565,-81.97C-180.132,-83.936 -173.403,-89.182 -170.162,-98.405C-167.777,-105.192 -167.327,-112.203 -168.501,-119.288C-169.542,-125.575 -172.744,-130.538 -178.012,-134.169C-180.396,-135.811 -182.875,-137.279 -185.479,-138.54C-191.77,-141.592 -198.447,-143.643 -205.009,-145.979C-213.696,-149.071 -222.343,-152.222 -230.503,-156.588C-239.449,-161.377 -246.614,-167.88 -251.171,-177.083C-254.094,-182.988 -256.041,-189.198 -257.264,-195.648C-259.236,-206.071 -259.582,-216.586 -259.005,-227.153C-258.55,-235.477 -257.225,-243.645 -254.738,-251.605C-251.432,-262.186 -246.42,-271.828 -238.645,-280.136M-165.596,-280.237C-165.533,-279.741 -165.246,-279.624 -165.054,-279.438C-161.586,-276.015 -158.455,-272.32 -155.827,-268.207C-149.015,-257.544 -145.655,-245.697 -143.865,-233.309C-143.053,-227.707 -142.745,-222.064 -142.444,-216.42C-142.398,-215.541 -142.71,-215.357 -143.528,-215.361C-152.88,-215.387 -162.233,-215.393 -171.586,-215.354C-172.566,-215.35 -172.73,-215.669 -172.776,-216.57C-173.074,-222.277 -173.883,-227.9 -175.862,-233.3C-178.409,-240.256 -182.551,-245.895 -189.283,-249.32C-194.653,-252.055 -200.401,-252.816 -206.346,-252.253C-216.571,-251.281 -223.898,-246.199 -227.731,-236.612C-230.656,-229.292 -230.88,-221.668 -229.148,-214.016C-227.843,-208.255 -224.583,-203.838 -219.481,-200.802C-217.306,-199.509 -215.064,-198.349 -212.758,-197.311C-204.933,-193.79 -196.804,-191.032 -188.83,-187.887C-182.085,-185.227 -175.157,-183.016 -168.678,-179.708C-161.696,-176.148 -155.481,-171.616 -150.673,-165.341C-144.336,-157.077 -141.047,-147.551 -139.29,-137.426C-137.32,-126.093 -137.113,-114.692 -138.298,-103.263C-139.451,-92.151 -142.239,-81.492 -147.382,-71.524C-152.044,-62.485 -158.027,-54.532 -166.56,-48.751C-167.328,-48.231 -166.981,-47.942 -166.592,-47.489C-154.536,-33.463 -142.485,-19.43 -130.425,-5.408C-130.183,-5.125 -130.006,-4.594 -129.534,-4.739C-129.046,-4.891 -129.042,-5.41 -129.044,-5.862C-129.046,-6.062 -129.044,-6.262 -129.044,-6.462C-128.962,-36.283 -129.019,-66.103 -128.955,-95.923C-128.821,-156.855 -128.916,-217.785 -128.888,-278.717C-128.888,-279.881 -129.097,-280.278 -130.376,-280.27C-141.695,-280.212 -153.014,-280.237 -164.333,-280.237L-165.596,-280.237ZM-0.315,-301.285C3.888,-299.322 3.808,-299.542 5.473,-298.331C6.969,-297.243 8.207,-295.855 9.511,-294.548C23.528,-280.471 37.305,-266.16 51.157,-251.922C59.41,-243.437 67.653,-234.942 75.889,-226.439C77.062,-225.229 78.142,-223.931 79.311,-222.716C80.048,-221.949 80.079,-221.359 79.343,-220.493C74.844,-215.208 70.413,-209.867 65.948,-204.55C49.12,-184.517 32.291,-164.484 15.458,-144.457C-0.397,-125.598 -16.261,-106.747 -32.118,-87.891C-49.317,-67.437 -66.509,-46.977 -83.719,-26.531C-96.769,-11.026 -109.836,4.46 -122.91,19.942C-124.85,22.239 -126.901,24.446 -128.846,26.739C-129.488,27.495 -129.88,27.434 -130.496,26.72C-135.969,20.369 -141.49,14.058 -146.953,7.7C-156.921,-3.892 -166.893,-15.477 -176.795,-27.122C-186.591,-38.642 -196.318,-50.223 -206.052,-61.797C-217.235,-75.088 -228.384,-88.407 -239.565,-101.697C-250.899,-115.172 -262.261,-128.625 -273.6,-142.095C-284.477,-155.011 -295.34,-167.941 -306.211,-180.863C-316.952,-193.633 -327.695,-206.399 -338.428,-219.172C-340.137,-221.207 -340.095,-221.209 -338.273,-223.175C-329.624,-232.507 -320.646,-241.522 -311.771,-250.634C-297.014,-265.783 -282.202,-280.878 -267.437,-296.021C-265.402,-298.107 -263.066,-299.623 -260.285,-300.474C-259.479,-300.722 -257.542,-301.285 -257.542,-301.285L-0.315,-301.285Z" style="fill:rgb(236,196,18);"/>
                                        </g>
                                        <g transform="matrix(1,0,0,1,185.396,334.085)">
                                            <path d="M0,-275.602L1.261,-275.602C12.582,-275.602 23.901,-275.577 35.22,-275.637C36.501,-275.643 36.708,-275.246 36.706,-274.082C36.68,-213.15 36.775,-152.219 36.643,-91.288C36.577,-61.468 36.634,-31.648 36.552,-1.827C36.552,-1.627 36.551,-1.427 36.552,-1.227C36.556,-0.775 36.551,-0.256 36.062,-0.104C35.592,0.041 35.415,-0.49 35.171,-0.773C23.111,-14.796 11.062,-28.828 -0.995,-42.854C-1.385,-43.307 -1.732,-43.596 -0.964,-44.116C7.57,-49.897 13.553,-57.85 18.214,-66.889C23.356,-76.857 26.145,-87.516 27.298,-98.628C28.483,-110.057 28.276,-121.458 26.308,-132.791C24.549,-142.917 21.26,-152.442 14.925,-160.706C10.113,-166.981 3.9,-171.513 -3.082,-175.075C-9.562,-178.382 -16.489,-180.592 -23.234,-183.252C-31.209,-186.398 -39.337,-189.155 -47.163,-192.678C-49.467,-193.712 -51.71,-194.872 -53.885,-196.167C-58.986,-199.203 -62.247,-203.62 -63.552,-209.38C-65.284,-217.031 -65.06,-224.657 -62.135,-231.978C-58.302,-241.565 -50.975,-246.646 -40.752,-247.618C-34.804,-248.181 -29.057,-247.42 -23.685,-244.685C-16.953,-241.26 -12.812,-235.621 -10.266,-228.665C-8.287,-223.265 -7.479,-217.644 -7.18,-211.935C-7.134,-211.034 -6.971,-210.715 -5.99,-210.719C3.363,-210.758 12.717,-210.752 22.068,-210.726C22.886,-210.722 23.198,-210.906 23.152,-211.785C22.851,-217.431 22.543,-223.074 21.732,-228.674C19.941,-241.062 16.581,-252.909 9.768,-263.573C7.141,-267.685 4.01,-271.38 0.542,-274.803C0.352,-274.989 0.064,-275.103 0,-275.602" style="fill:rgb(196,3,1);"/>
                                        </g>
                                        <g transform="matrix(1,0,0,1,112.347,257.502)">
                                            <path d="M0,-198.918C-7.775,-190.61 -12.786,-180.968 -16.093,-170.387C-18.58,-162.428 -19.904,-154.259 -20.36,-145.937C-20.937,-135.368 -20.592,-124.853 -18.618,-114.43C-17.397,-107.98 -15.448,-101.77 -12.525,-95.865C-7.97,-86.663 -0.804,-80.159 8.142,-75.37C16.304,-71.006 24.949,-67.853 33.636,-64.761C40.2,-62.425 46.875,-60.374 53.167,-57.322C55.77,-56.061 58.25,-54.593 60.634,-52.951C65.901,-49.32 69.103,-44.359 70.144,-38.07C71.317,-30.986 70.871,-23.974 68.483,-17.187C65.242,-7.964 58.513,-2.719 49.081,-0.753C47.555,-0.434 45.992,-0.285 44.451,-0.034C43.539,0.119 42.901,-0.158 42.276,-0.891C34.851,-9.585 27.39,-18.246 19.94,-26.919C8.437,-40.305 -3.064,-53.695 -14.565,-67.085C-29.124,-84.031 -43.682,-100.982 -58.245,-117.93C-63.421,-123.952 -68.61,-129.967 -73.784,-135.992C-75.254,-137.706 -75.051,-137.256 -73.656,-138.691C-60.675,-152.035 -47.686,-165.368 -34.705,-178.709C-28.355,-185.236 -22.013,-191.772 -15.673,-198.307C-15.273,-198.718 -14.884,-199.037 -14.237,-199.033C-9.702,-199.007 -5.167,-199.019 -0.632,-199.015C-0.484,-199.015 -0.337,-198.969 0,-198.918" style="fill:rgb(196,3,1);"/>
                                        </g>
                                        <g transform="matrix(1,0,0,1,252.77,113.205)">
                                            <path d="M0,183.901C0.439,122.606 0.292,61.308 0.326,-0.069C0.861,0.098 0.902,0.544 1.056,0.859C8.147,15.341 15.225,29.828 22.304,44.315C27.991,55.955 33.68,67.598 39.365,79.238C45.387,91.565 51.398,103.892 57.437,116.21C57.772,116.896 57.708,117.332 57.216,117.905C42.425,135.085 27.654,152.279 12.878,169.472C9.086,173.883 5.299,178.301 1.509,182.714C1.146,183.138 0.769,183.55 0.397,183.97C0.266,183.947 0.131,183.924 0,183.901" style="fill:rgb(196,3,1);"/>
                                        </g>
                                        <g transform="matrix(1,0,0,1,319.559,58.4544)">
                                            <path d="M0,128.805C-1.679,125.349 -3.36,121.892 -5.037,118.435C-11.654,104.796 -18.271,91.156 -24.882,77.513C-35.553,55.497 -46.216,33.476 -56.883,11.459C-58.529,8.066 -60.179,4.676 -61.819,1.281C-62.421,0.036 -62.414,0.028 -61.061,0.028C-52.432,0.027 -43.803,0.028 -35.176,0.028C-23.818,0.028 -12.462,0.043 -1.103,0.004C-0.014,0 0.299,0.264 0.297,1.389C0.269,43.529 0.271,85.666 0.271,127.804L0.271,128.731C0.181,128.757 0.092,128.78 0,128.805" style="fill:rgb(196,3,1);"/>
                                        </g>
                                        <g transform="matrix(1,0,0,1,350.992,183.103)">
                                            <path d="M0,-118.173C2.141,-116.168 4.467,-114.137 6.626,-111.94C13.432,-105.017 20.173,-98.032 26.946,-91.073C35.755,-82.017 44.561,-72.953 53.403,-63.927C54.165,-63.151 54.143,-62.705 53.456,-61.912C41.43,-47.969 29.431,-34.004 17.43,-20.042C11.937,-13.656 6.456,-7.258 0.962,-0.872C0.708,-0.578 0.531,-0.195 0,0L0,-118.173Z" style="fill:rgb(196,3,1);"/>
                                        </g>
                                        <g transform="matrix(1,0,0,1,13.6817,10.752)">
                                            <path d="M0,5.377C-1.148,5.209 -2.191,4.914 -3.129,4.494C-4.068,4.074 -4.872,3.557 -5.545,2.939C-6.216,2.324 -6.741,1.611 -7.119,0.799C-7.497,-0.014 -7.686,-0.908 -7.686,-1.889L-7.686,-3.695C-7.686,-5.627 -6.959,-7.279 -5.503,-8.652C-4.019,-10.051 -2.226,-10.752 -0.126,-10.752L32.088,-10.752L32.088,-4.242L3.276,-4.242L3.276,-0.504L24.234,-0.504C25.381,-0.391 26.439,-0.174 27.405,0.147C28.371,0.469 29.196,0.897 29.883,1.428C30.568,1.961 31.107,2.604 31.5,3.361C31.892,4.117 32.088,4.971 32.088,5.922L32.088,9.072C32.088,11.033 31.332,12.699 29.82,14.07C28.364,15.443 26.558,16.129 24.402,16.129L-7.728,16.129L-7.728,9.871L21,9.871L21,5.377L0,5.377Z" style="fill:rgb(236,196,18);fill-rule:nonzero;"/>
                                        </g>
                                        <g transform="matrix(1,0,0,1,60.3428,6.7212)">
                                            <path d="M0,13.482L19.152,13.482L19.152,-6.678L29.274,-6.678L29.274,20.16L-3.192,20.16C-5.124,20.16 -6.776,19.474 -8.148,18.101C-9.548,16.701 -10.248,15.035 -10.248,13.103L-10.248,-6.678L0,-6.678L0,13.482Z" style="fill:rgb(236,196,18);fill-rule:nonzero;"/>
                                        </g>
                                        <g transform="matrix(1,0,0,1,122.629,15.92)">
                                            <path d="M0,-4.916L0,-9.41L-17.472,-9.41L-17.472,10.961L-28.812,10.961L-28.812,-15.877L3.486,-15.877C5.67,-15.877 7.532,-15.191 9.072,-13.82C10.64,-12.42 11.424,-10.768 11.424,-8.863L11.424,-5.672C11.424,-3.768 10.64,-2.115 9.072,-0.715C7.532,0.656 5.67,1.342 3.486,1.342L-11.802,1.342L-11.802,-4.916L0,-4.916Z" style="fill:rgb(236,196,18);fill-rule:nonzero;"/>
                                        </g>
                                        <g transform="matrix(1,0,0,1,0,-339.077)">
                                            <path d="M154.212,349.493L175.548,349.493L175.548,355.331L154.212,355.331L154.212,349.493ZM148.165,359.28L177.522,359.28L177.522,365.958L145.056,365.958C143.096,365.958 141.43,365.272 140.059,363.899C138.686,362.528 138,360.862 138,358.901L138,346.175C138,344.216 138.686,342.55 140.059,341.177C141.43,339.806 143.096,339.12 145.056,339.12L177.396,339.12L177.396,345.798L148.165,345.798L148.165,359.28Z" style="fill:rgb(236,196,18);fill-rule:nonzero;"/>
                                        </g>
                                        <g transform="matrix(1,0,0,1,192.138,20.4548)">
                                            <path d="M0,-13.945L0,6.426L-10.458,6.426L-10.458,-20.412L20.58,-20.412C22.624,-20.412 24.332,-19.726 25.704,-18.355C27.132,-16.955 27.846,-15.289 27.846,-13.357L27.846,-10.207C27.846,-9.394 27.713,-8.625 27.447,-7.896C27.181,-7.168 26.81,-6.509 26.334,-5.922C25.857,-5.334 25.291,-4.824 24.633,-4.39C23.975,-3.955 23.268,-3.64 22.512,-3.445L28.813,6.467L7.266,6.467L7.266,-9.451L17.346,-9.451L17.346,-13.945L0,-13.945Z" style="fill:rgb(236,196,18);fill-rule:nonzero;"/>
                                        </g>
                                        <g transform="matrix(1,0,0,1,254.927,0.0429)">
                                            <path d="M0,26.838L0,6.678L-19.152,6.678L-19.152,26.838L-29.273,26.838L-29.273,0L3.193,0C5.125,0 6.775,0.686 8.148,2.057C9.549,3.457 10.248,5.123 10.248,7.055L10.248,26.838L0,26.838Z" style="fill:rgb(236,196,18);fill-rule:nonzero;"/>
                                        </g>
                                        <g transform="matrix(1,0,0,1,308.982,26.881)">
                                            <path d="M0,-26.838L0,-7.057C0,-5.125 -0.7,-3.459 -2.1,-2.059C-3.473,-0.686 -5.124,0 -7.056,0L-32.424,0C-34.441,0 -36.148,-0.699 -37.548,-2.1C-38.864,-3.416 -39.522,-4.971 -39.522,-6.762L-39.522,-26.838L-29.4,-26.838L-29.4,-6.678L-10.248,-6.678L-10.248,-26.838L0,-26.838Z" style="fill:rgb(236,196,18);fill-rule:nonzero;"/>
                                        </g>
                                        <g transform="matrix(1,0,0,1,323.513,0.0839)">
                                            <path d="M0,26.797L-10.458,26.797L-10.458,-0.041L20.58,-0.041C22.624,-0.041 24.332,0.645 25.704,2.016C27.133,3.416 27.847,5.082 27.847,7.014L27.847,10.164C27.847,10.977 27.727,11.746 27.489,12.475C27.251,13.203 26.866,13.867 26.334,14.469C25.802,15.072 25.116,15.582 24.276,16.002C23.437,16.422 22.414,16.717 21.21,16.885L28.812,26.838L17.683,26.838L7.267,10.92L17.347,10.92L17.347,6.426L0,6.426L0,26.797Z" style="fill:rgb(236,196,18);fill-rule:nonzero;"/>
                                        </g>
                                        <g transform="matrix(1,0,0,1,0,-339.077)">
                                            <path d="M386.387,345.798L367.151,345.798L367.151,359.28L386.387,359.28L386.387,345.798ZM357.029,365.958L357.029,345.798L356.987,345.798L356.987,339.12L389.496,339.12C391.427,339.12 393.079,339.806 394.452,341.177C395.851,342.577 396.551,344.243 396.551,346.175L396.551,358.901C396.551,360.833 395.851,362.499 394.452,363.899C393.079,365.272 391.427,365.958 389.496,365.958L357.029,365.958Z" style="fill:rgb(236,196,18);fill-rule:nonzero;"/>
                                        </g>
                                        <g transform="matrix(1,0,0,1,408.101,10.752)">
                                            <path d="M0,5.377C-1.148,5.209 -2.191,4.914 -3.129,4.494C-4.067,4.074 -4.872,3.557 -5.544,2.939C-6.216,2.324 -6.741,1.611 -7.119,0.799C-7.497,-0.014 -7.686,-0.908 -7.686,-1.889L-7.686,-3.695C-7.686,-5.627 -6.958,-7.279 -5.502,-8.652C-4.018,-10.051 -2.227,-10.752 -0.126,-10.752L32.088,-10.752L32.088,-4.367L3.275,-4.367L3.275,-0.504L24.233,-0.504C25.382,-0.391 26.439,-0.174 27.405,0.147C28.371,0.469 29.196,0.897 29.883,1.428C30.568,1.961 31.107,2.604 31.5,3.361C31.892,4.117 32.088,4.971 32.088,5.922L32.088,9.072C32.088,11.033 31.332,12.699 29.819,14.07C28.363,15.443 26.558,16.129 24.401,16.129L-7.728,16.129L-7.728,9.871L21,9.871L21,5.377L0,5.377Z" style="fill:rgb(236,196,18);fill-rule:nonzero;"/>
                                        </g>
                                        <g transform="matrix(1,0,0,1,7.1988,132.985)">
                                            <path d="M0,12.135L5.866,7.178L1.156,1.606L-4.709,6.563L-7.199,3.617L0.61,-2.982L8.594,6.464C9.069,7.026 9.275,7.676 9.213,8.412C9.15,9.164 8.838,9.778 8.276,10.252L2.521,15.117L0,12.135Z" style="fill:rgb(236,196,18);fill-rule:nonzero;"/>
                                        </g>
                                        <g transform="matrix(1,0,0,1,18.0518,156.369)">
                                            <path d="M0,-8.124L6.734,-0.157L5.072,1.247L-1.662,-6.72L-2.835,-5.728L4.384,2.814L2.429,4.466L-5.555,-4.981C-6.037,-5.55 -6.247,-6.204 -6.185,-6.94C-6.123,-7.677 -5.807,-8.286 -5.237,-8.769L-1.534,-11.897C-0.964,-12.38 -0.311,-12.59 0.426,-12.527C1.163,-12.466 1.772,-12.149 2.254,-11.58L10.207,-2.171L8.264,-0.528L1.076,-9.033L0,-8.124Z" style="fill:rgb(236,196,18);fill-rule:nonzero;"/>
                                        </g>
                                        <g transform="matrix(1,0,0,1,39.0933,157.12)">
                                            <path d="M0,9.898L-11.713,11.878L-13.944,9.239L-10.039,-1.98L-7.158,1.429L-9.576,7.79L-2.882,6.489L0,9.898Z" style="fill:rgb(236,196,18);fill-rule:nonzero;"/>
                                        </g>
                                        <g transform="matrix(1,0,0,1,39.2764,181.482)">
                                            <path d="M0,-8.125L6.734,-0.157L5.073,1.247L-1.662,-6.721L-2.835,-5.729L4.385,2.813L2.43,4.465L-5.554,-4.98C-6.036,-5.551 -6.246,-6.204 -6.184,-6.94C-6.123,-7.678 -5.807,-8.286 -5.237,-8.768L-1.534,-11.898C-0.964,-12.38 -0.31,-12.59 0.426,-12.527C1.163,-12.467 1.772,-12.15 2.254,-11.58L10.208,-2.17L8.265,-0.528L1.076,-9.033L0,-8.125Z" style="fill:rgb(236,196,18);fill-rule:nonzero;"/>
                                        </g>
                                        <g transform="matrix(1,0,0,1,45.3413,188.999)">
                                            <path d="M0,1.249L-2.572,-1.794L5.237,-8.394L12.87,0.637C13.372,1.231 13.592,1.898 13.531,2.635C13.475,3.394 13.166,4.012 12.604,4.486L11.687,5.262C11.45,5.461 11.197,5.615 10.927,5.725C10.656,5.835 10.368,5.887 10.062,5.88C9.756,5.873 9.439,5.799 9.11,5.658C8.782,5.518 8.444,5.291 8.1,4.982L7.073,9.643L4.336,6.404L6.406,-0.541L8.885,2.393L10.192,1.287L5.926,-3.76L0,1.249Z" style="fill:rgb(236,196,18);fill-rule:nonzero;"/>
                                        </g>
                                        <g transform="matrix(1,0,0,1,62.9214,209.327)">
                                            <path d="M0,-2.221L4.709,3.351L10.575,-1.606L13.064,1.34L5.256,7.939L-2.728,-1.508C-3.203,-2.07 -3.41,-2.719 -3.348,-3.455C-3.285,-4.207 -2.972,-4.821 -2.411,-5.295L3.345,-10.16L5.866,-7.178L0,-2.221Z" style="fill:rgb(236,196,18);fill-rule:nonzero;"/>
                                        </g>
                                        <g transform="matrix(1,0,0,1,76.4395,214.906)">
                                            <path d="M0,12.136L5.866,7.178L1.156,1.607L-4.71,6.564L-7.199,3.618L0.61,-2.981L8.594,6.465C9.069,7.027 9.275,7.677 9.213,8.413C9.15,9.164 8.838,9.778 8.276,10.253L2.52,15.117L0,12.136Z" style="fill:rgb(236,196,18);fill-rule:nonzero;"/>
                                        </g>
                                        <g transform="matrix(1,0,0,1,93.0987,231.519)">
                                            <path d="M0,3.336L-4.73,-2.262L-8.653,1.055L-3.923,6.65L0,3.336ZM-13.085,-0.248L-7.22,-5.206L-7.23,-5.219L-5.287,-6.861L2.707,2.598C3.182,3.16 3.389,3.81 3.327,4.546C3.264,5.297 2.952,5.911 2.39,6.386L-1.313,9.516C-1.875,9.99 -2.532,10.197 -3.284,10.133C-4.02,10.072 -4.626,9.76 -5.102,9.197L-13.085,-0.248Z" style="fill:rgb(236,196,18);fill-rule:nonzero;"/>
                                        </g>
                                        <g transform="matrix(1,0,0,1,98.065,251.037)">
                                            <path d="M0,-8.126L6.734,-0.157L5.072,1.247L-1.662,-6.722L-2.835,-5.73L4.384,2.812L2.429,4.465L-5.555,-4.981C-6.037,-5.552 -6.247,-6.204 -6.185,-6.941C-6.123,-7.679 -5.807,-8.287 -5.237,-8.769L-1.534,-11.899C-0.964,-12.381 -0.311,-12.591 0.426,-12.528C1.163,-12.467 1.772,-12.151 2.254,-11.581L10.207,-2.171L8.264,-0.529L1.076,-9.034L0,-8.126Z" style="fill:rgb(236,196,18);fill-rule:nonzero;"/>
                                        </g>
                                        <g transform="matrix(1,0,0,1,104.13,258.554)">
                                            <path d="M0,1.25L-2.572,-1.793L5.236,-8.393L12.869,0.637C13.372,1.232 13.592,1.898 13.53,2.635C13.474,3.395 13.165,4.012 12.604,4.486L11.686,5.262C11.45,5.461 11.197,5.615 10.927,5.725C10.656,5.835 10.368,5.887 10.062,5.88C9.756,5.873 9.439,5.799 9.11,5.658C8.781,5.518 8.444,5.291 8.099,4.982L7.073,9.643L4.336,6.404L6.406,-0.541L8.885,2.393L10.192,1.287L5.926,-3.76L0,1.25Z" style="fill:rgb(236,196,18);fill-rule:nonzero;"/>
                                        </g>
                                        <g transform="matrix(1,0,0,1,119.424,276.306)">
                                            <path d="M0,-8.123L6.734,-0.156L5.072,1.248L-1.662,-6.719L-2.835,-5.728L4.385,2.815L2.43,4.467L-5.555,-4.98C-6.037,-5.55 -6.247,-6.203 -6.185,-6.939C-6.123,-7.676 -5.807,-8.285 -5.237,-8.768L-1.534,-11.896C-0.964,-12.379 -0.311,-12.59 0.426,-12.527C1.163,-12.465 1.772,-12.149 2.254,-11.579L10.206,-2.17L8.264,-0.527L1.076,-9.033L0,-8.123Z" style="fill:rgb(236,196,18);fill-rule:nonzero;"/>
                                        </g>
                                        <g transform="matrix(1,0,0,1,127.884,287.341)">
                                            <path d="M0,-5.779C-0.234,-6.154 -0.405,-6.529 -0.513,-6.906C-0.622,-7.283 -0.669,-7.644 -0.655,-7.99C-0.641,-8.338 -0.563,-8.666 -0.419,-8.975C-0.276,-9.285 -0.061,-9.56 0.224,-9.801L0.749,-10.246C1.312,-10.72 1.971,-10.916 2.728,-10.828C3.501,-10.741 4.145,-10.392 4.661,-9.781L12.583,-0.409L10.726,1.16L3.641,-7.221L2.516,-6.271L7.67,-0.174C7.92,0.188 8.116,0.549 8.26,0.91C8.404,1.269 8.482,1.614 8.497,1.945C8.511,2.276 8.456,2.59 8.333,2.891C8.21,3.191 8.008,3.457 7.732,3.692L6.815,4.466C6.245,4.948 5.574,5.137 4.804,5.035C4.046,4.95 3.402,4.592 2.872,3.965L-5.029,-5.383L-3.208,-6.922L3.857,1.437L5.164,0.331L0,-5.779Z" style="fill:rgb(236,196,18);fill-rule:nonzero;"/>
                                        </g>
                                        <g transform="matrix(1,0,0,1,149.284,289.175)">
                                            <path d="M0,12.154L-3.439,8.085L-9.305,13.043L-12.083,9.756L-6.218,4.797L-9.636,0.754L-7.693,-0.889L1.943,10.511L0,12.154Z" style="fill:rgb(236,196,18);fill-rule:nonzero;"/>
                                        </g>
                                        <g transform="matrix(-0.645382,-0.76386,-0.76386,0.645382,155.073,304.678)">
                                            <rect x="0.613" y="-0.284" width="4.002" height="10.224" style="fill:rgb(236,196,18);"/>
                                        </g>
                                        <g transform="matrix(1,0,0,1,166.44,313.876)">
                                            <path d="M0,3.811C0.475,4.373 0.682,5.023 0.62,5.759C0.558,6.496 0.242,7.105 -0.328,7.586L-6.083,12.452L-8.583,9.495L-2.717,4.538L-5.093,1.725L-10.959,6.683L-13.458,3.726L-7.593,-1.232L-9.968,-4.043L-15.833,0.916L-18.333,-2.042L-10.524,-8.641L0,3.811Z" style="fill:rgb(236,196,18);fill-rule:nonzero;"/>
                                        </g>
                                        <g transform="matrix(1,0,0,1,172.722,328.448)">
                                            <path d="M0,4.082L1.711,2.636L-2.958,-2.888L-4.669,-1.441L-3.182,0.318L0,4.082ZM-8.823,2.07L-11.323,-0.888L-5.567,-5.752C-4.997,-6.234 -4.343,-6.443 -3.607,-6.382C-2.871,-6.32 -2.261,-6.004 -1.779,-5.434L4.418,1.898C4.893,2.46 5.1,3.109 5.037,3.846C4.977,4.567 4.686,5.148 4.165,5.59L-1.676,10.525L-4.155,7.594L-1.662,5.486L-6.33,-0.037L-8.823,2.07Z" style="fill:rgb(236,196,18);fill-rule:nonzero;"/>
                                        </g>
                                        <g transform="matrix(1,0,0,1,187.746,334.681)">
                                            <path d="M0,12.154L-3.439,8.086L-9.305,13.043L-12.083,9.756L-6.217,4.799L-9.636,0.754L-7.693,-0.889L1.943,10.512L0,12.154Z" style="fill:rgb(236,196,18);fill-rule:nonzero;"/>
                                        </g>
                                        <g transform="matrix(1,0,0,1,190.244,360.097)">
                                            <path d="M0,-8.123L6.734,-0.156L5.072,1.248L-1.662,-6.719L-2.835,-5.728L4.385,2.815L2.43,4.467L-5.554,-4.98C-6.036,-5.55 -6.246,-6.203 -6.184,-6.939C-6.123,-7.676 -5.807,-8.285 -5.237,-8.768L-1.534,-11.897C-0.964,-12.379 -0.31,-12.59 0.426,-12.527C1.163,-12.465 1.772,-12.149 2.255,-11.579L10.207,-2.17L8.264,-0.528L1.076,-9.033L0,-8.123Z" style="fill:rgb(236,196,18);fill-rule:nonzero;"/>
                                        </g>
                                        <g transform="matrix(1,0,0,1,246.125,354.051)">
                                            <path d="M0,1.332L5.962,6.299L3.055,9.788L-4.801,3.244L3.826,-7.112C4.395,-7.795 5.07,-8.197 5.854,-8.32C6.66,-8.456 7.346,-8.288 7.912,-7.816L8.834,-7.049C9.072,-6.851 9.26,-6.619 9.398,-6.352C9.538,-6.086 9.627,-5.803 9.668,-5.5C9.707,-5.197 9.699,-4.884 9.643,-4.559C9.588,-4.232 9.483,-3.92 9.33,-3.619L13.982,-3.305L7.994,3.885L3.334,0.003L6.137,-3.361L4.821,-4.457L0,1.332Z" style="fill:rgb(236,196,18);fill-rule:nonzero;"/>
                                        </g>
                                        <g transform="matrix(1,0,0,1,263.395,344.451)">
                                            <path d="M0,-9.676L-5.324,-3.285L-1.377,0.003L3.945,-6.388L0,-9.676ZM0.9,-13.507C1.699,-13.633 2.382,-13.46 2.947,-12.989L6.672,-9.886C7.238,-9.414 7.531,-8.775 7.551,-7.967C7.572,-7.174 7.302,-6.442 6.741,-5.769L-0.275,2.654C-0.828,3.318 -1.496,3.711 -2.278,3.834C-3.062,3.957 -3.74,3.78 -4.313,3.303L-8.039,0.199C-8.612,-0.28 -8.909,-0.914 -8.93,-1.707C-8.949,-2.498 -8.684,-3.227 -8.131,-3.89L-1.115,-12.313C-0.555,-12.985 0.117,-13.383 0.9,-13.507" style="fill:rgb(236,196,18);fill-rule:nonzero;"/>
                                        </g>
                                        <g transform="matrix(1,0,0,1,278.17,328.517)">
                                            <path d="M0,-6.003L-5.814,0.977L-4.498,2.072L1.316,-4.907L0,-6.003ZM-2.52,-8.577L-8.568,-1.317L-7.425,-0.365L-1.377,-7.624L-2.52,-8.577ZM-12.691,-0.218L-3.563,-11.177C-3.041,-11.803 -2.4,-12.163 -1.641,-12.259C-0.865,-12.357 -0.193,-12.171 0.371,-11.699L0.889,-11.269C1.348,-10.887 1.584,-10.396 1.6,-9.798C2.191,-9.892 2.716,-9.747 3.174,-9.364L4.097,-8.597C4.662,-8.125 4.967,-7.499 5.011,-6.719C5.055,-5.954 4.816,-5.259 4.294,-4.634L-4.859,6.354L-12.691,-0.218Z" style="fill:rgb(236,196,18);fill-rule:nonzero;"/>
                                        </g>
                                        <g transform="matrix(1,0,0,1,287.852,315.092)">
                                            <path d="M0,-9.676L-5.323,-3.285L-1.377,0.002L3.947,-6.389L0,-9.676ZM0.901,-13.508C1.7,-13.633 2.383,-13.461 2.947,-12.99L6.673,-9.887C7.238,-9.415 7.531,-8.776 7.553,-7.967C7.572,-7.174 7.303,-6.442 6.742,-5.77L-0.274,2.654C-0.827,3.316 -1.495,3.711 -2.277,3.833C-3.061,3.957 -3.739,3.779 -4.312,3.301L-8.038,0.198C-8.611,-0.28 -8.908,-0.914 -8.929,-1.707C-8.949,-2.498 -8.684,-3.227 -8.131,-3.891L-1.113,-12.313C-0.554,-12.987 0.118,-13.383 0.901,-13.508" style="fill:rgb(236,196,18);fill-rule:nonzero;"/>
                                        </g>
                                        <g transform="matrix(1,0,0,1,302.889,299.089)">
                                            <path d="M0,-11.724L-3.887,-7.058L2.014,-2.142L-1.127,1.628L-7.027,-3.288L-10.893,1.352L-12.848,-0.277L-1.955,-13.352L0,-11.724Z" style="fill:rgb(236,196,18);fill-rule:nonzero;"/>
                                        </g>
                                        <g transform="matrix(-0.640033,0.768347,0.768347,0.640033,302.931,288.951)">
                                            <rect x="-7.665" y="-3.591" width="4.559" height="10.224" style="fill:rgb(236,196,18);"/>
                                        </g>
                                        <g transform="matrix(1,0,0,1,314.961,270.156)">
                                            <path d="M0,10.742L8.125,0.988L10.08,2.617L1.09,13.408C0.545,14.062 -0.119,14.451 -0.902,14.574C-1.685,14.697 -2.363,14.519 -2.937,14.041L-6.662,10.938C-7.235,10.461 -7.532,9.826 -7.553,9.033C-7.572,8.242 -7.311,7.517 -6.766,6.863L2.247,-3.955L4.202,-2.327L-3.947,7.455L0,10.742Z" style="fill:rgb(236,196,18);fill-rule:nonzero;"/>
                                        </g>
                                        <g transform="matrix(1,0,0,1,338.006,257.428)">
                                            <path d="M0,-4.194L-3.946,-7.482L-12.118,2.327L-14.073,0.701L-5.037,-10.147C-4.5,-10.792 -3.84,-11.174 -3.057,-11.299C-2.258,-11.424 -1.576,-11.253 -1.011,-10.782L2.715,-7.678C3.279,-7.208 3.573,-6.567 3.594,-5.758C3.613,-4.965 3.355,-4.248 2.818,-3.603L-6.206,7.23L-10.853,3.359L-8.039,-0.018L-5.347,2.224L0,-4.194Z" style="fill:rgb(236,196,18);fill-rule:nonzero;"/>
                                        </g>
                                        <g transform="matrix(1,0,0,1,346.225,245.02)">
                                            <path d="M0,-9.676L-5.324,-3.285L-1.377,0.002L3.946,-6.389L0,-9.676ZM0.9,-13.508C1.699,-13.633 2.382,-13.461 2.947,-12.99L6.672,-9.887C7.238,-9.416 7.531,-8.776 7.551,-7.967C7.572,-7.174 7.302,-6.442 6.741,-5.77L-0.275,2.653C-0.828,3.316 -1.496,3.711 -2.278,3.833C-3.062,3.957 -3.74,3.779 -4.313,3.301L-8.039,0.198C-8.612,-0.28 -8.909,-0.915 -8.93,-1.707C-8.949,-2.498 -8.684,-3.227 -8.131,-3.891L-1.115,-12.314C-0.555,-12.987 0.117,-13.383 0.9,-13.508" style="fill:rgb(236,196,18);fill-rule:nonzero;"/>
                                        </g>
                                        <g transform="matrix(1,0,0,1,360.229,234.108)">
                                            <path d="M0,-19.55C0.537,-20.196 1.197,-20.578 1.98,-20.702C2.764,-20.825 3.441,-20.649 4.016,-20.17L9.807,-15.347L6.98,-11.955L1.08,-16.871L-1.605,-13.649L4.295,-8.733L1.471,-5.34L-4.431,-10.256L-7.116,-7.033L-1.215,-2.117L-4.041,1.275L-11.896,-5.27L0,-19.55Z" style="fill:rgb(236,196,18);fill-rule:nonzero;"/>
                                        </g>
                                        <g transform="matrix(-0.639926,0.768437,0.768437,0.639926,364.142,215.476)">
                                            <rect x="-7.666" y="-3.593" width="4.558" height="10.224" style="fill:rgb(236,196,18);"/>
                                        </g>
                                        <g transform="matrix(1,0,0,1,383.448,203.539)">
                                            <path d="M0,-0.88L-5.9,-5.796L-11.225,0.595L-5.323,5.511L-8.137,8.888L-15.992,2.344L-6.969,-8.488C-6.432,-9.134 -5.771,-9.518 -4.988,-9.641C-4.189,-9.768 -3.508,-9.594 -2.941,-9.123L2.849,-4.299L0,-0.88Z" style="fill:rgb(236,196,18);fill-rule:nonzero;"/>
                                        </g>
                                        <g transform="matrix(1,0,0,1,391.398,192.452)">
                                            <path d="M0,-7.836L-1.722,-9.271L-6.998,-2.936L-5.276,-1.501L-3.595,-3.521L0,-7.836ZM-1.097,1.98L-3.923,5.372L-9.713,0.548C-10.286,0.07 -10.583,-0.565 -10.603,-1.356C-10.624,-2.149 -10.362,-2.872 -9.817,-3.526L-2.813,-11.935C-2.274,-12.58 -1.614,-12.964 -0.833,-13.087C-0.065,-13.208 0.581,-13.05 1.105,-12.613L6.981,-7.718L4.18,-4.355L1.671,-6.443L-3.605,-0.108L-1.097,1.98Z" style="fill:rgb(236,196,18);fill-rule:nonzero;"/>
                                        </g>
                                        <g transform="matrix(1,0,0,1,404.725,176.842)">
                                            <path d="M0,-11.725L-3.888,-7.058L2.014,-2.142L-1.127,1.628L-7.027,-3.288L-10.892,1.35L-12.847,-0.278L-1.955,-13.353L0,-11.725Z" style="fill:rgb(236,196,18);fill-rule:nonzero;"/>
                                        </g>
                                        <g transform="matrix(-0.639926,0.768437,0.768437,0.639926,404.769,166.705)">
                                            <rect x="-7.665" y="-3.593" width="4.557" height="10.224" style="fill:rgb(236,196,18);"/>
                                        </g>
                                        <g transform="matrix(1,0,0,1,418.186,158.635)">
                                            <path d="M0,-9.676L-5.324,-3.285L-1.377,0.002L3.946,-6.389L0,-9.676ZM0.9,-13.507C1.699,-13.633 2.381,-13.46 2.947,-12.989L6.672,-9.886C7.237,-9.414 7.531,-8.776 7.551,-7.967C7.571,-7.174 7.301,-6.442 6.74,-5.769L-0.275,2.654C-0.828,3.317 -1.496,3.711 -2.279,3.834C-3.062,3.957 -3.74,3.779 -4.314,3.301L-8.039,0.198C-8.612,-0.28 -8.909,-0.914 -8.93,-1.707C-8.949,-2.498 -8.684,-3.227 -8.131,-3.89L-1.115,-12.313C-0.555,-12.986 0.117,-13.383 0.9,-13.507" style="fill:rgb(236,196,18);fill-rule:nonzero;"/>
                                        </g>
                                        <g transform="matrix(1,0,0,1,436.298,140.097)">
                                            <path d="M0,-0.882L-5.901,-5.798L-11.225,0.593L-5.323,5.509L-8.137,8.887L-15.993,2.343L-6.97,-8.489C-6.432,-9.136 -5.771,-9.519 -4.989,-9.642C-4.19,-9.769 -3.508,-9.595 -2.942,-9.124L2.849,-4.3L0,-0.882Z" style="fill:rgb(236,196,18);fill-rule:nonzero;"/>
                                        </g>
                                    </g>
                                </g>
                            </g>
                        </g>
                    </g>
                    <g>
                        <g transform="matrix(-0.792297,0,0,1,4193.25,-205.881)">
                            <g transform="matrix(-4.13729,1.01334e-15,1.06302e-15,4.3401,12016.8,-10132.9)">
                                <path d="M2151.63,2934.9L1936.36,2935L1966.5,2969L2189.8,2969L2151.63,2934.9Z" style="fill:rgb(236,196,18);"/>
                            </g>
                            <g transform="matrix(-4.65642,1.14049e-15,1.06302e-15,4.3401,13351.8,-10369.8)">
                                <path d="M2144.19,2934.9L1932.78,2935L1959.49,2969L2178.05,2969L2144.19,2934.9Z" style="fill:rgb(236,196,18);"/>
                            </g>
                            <g transform="matrix(-5.28678,1.29489e-15,1.06302e-15,4.3401,14929.6,-10606.8)">
                                <path d="M2234.44,2934.88L1931.7,2935L1955.34,2968.98L2199.88,2968.98L2234.44,2934.88Z" style="fill:rgb(236,196,18);"/>
                            </g>
                        </g>
                        <g transform="matrix(0.792297,0,0,1,804.99,-205.881)">
                            <g transform="matrix(-4.13729,1.01334e-15,1.06302e-15,4.3401,12016.8,-10132.9)">
                                <path d="M2151.94,2934.9L1936.36,2935L1966.5,2969L2189.65,2969L2151.94,2934.9Z" style="fill:rgb(236,196,18);"/>
                            </g>
                            <g transform="matrix(-4.65642,1.14049e-15,1.06302e-15,4.3401,13351.8,-10369.8)">
                                <path d="M2145.05,2934.9L1933.23,2935L1959.93,2969L2178.56,2969L2145.05,2934.9Z" style="fill:rgb(236,196,18);"/>
                            </g>
                            <g transform="matrix(-5.28678,1.29489e-15,1.06302e-15,4.3401,14930,-10606.8)">
                                <path d="M2231.5,2935.64L1929.72,2935L1953.35,2968.98L2197.86,2969L2231.5,2935.64Z" style="fill:rgb(236,196,18);"/>
                            </g>
                        </g>
                    </g>
                    <g>
                        <g>
                            <g transform="matrix(1,0,0,1,-66.5491,0)">
                                <g transform="matrix(1.66373,0,0,1.66373,-1493.84,17.1437)">
                                    <path d="M3329.25,1431.9L3326.65,1432.64L3269.2,1520.59L3270.2,1552L3329.25,1464L3329.25,1431.9Z" style="fill:rgb(196,3,1);"/>
                                </g>
                                <g transform="matrix(1.66373,0,0,1.66373,-1221.82,-219.771)">
                                    <path d="M3329.25,1431.9L3326.65,1432.64L3269.2,1520.59L3270.2,1552L3329.25,1463.8L3329.25,1431.9Z" style="fill:rgb(196,3,1);"/>
                                </g>
                                <g transform="matrix(1.66373,0,0,1.66373,-921.848,-456.853)">
                                    <path d="M3329.5,1432L3327.1,1431.96L3269.2,1520.59L3270.2,1552L3329.25,1464L3329.5,1432Z" style="fill:rgb(196,3,1);"/>
                                </g>
                            </g>
                            <g transform="matrix(-1,0,0,1,5064.05,0)">
                                <g transform="matrix(1.66373,0,0,1.66373,-1493.84,17.1437)">
                                    <path d="M3329.25,1431.9L3326.65,1432.64L3269.2,1520.59L3269.46,1552L3329.25,1464L3329.25,1431.9Z" style="fill:rgb(196,3,1);"/>
                                </g>
                                <g transform="matrix(1.66373,0,0,1.66373,-1221.82,-219.771)">
                                    <path d="M3330.26,1431.9L3326.65,1432.64L3269.2,1520.59L3271.07,1551.97L3330.26,1462.26L3330.26,1431.9Z" style="fill:rgb(196,3,1);"/>
                                </g>
                                <g transform="matrix(1.66373,0,0,1.66373,-930.167,-456.853)">
                                    <path d="M3328.86,1432L3327.09,1431.97L3269.22,1520.61L3269.76,1552L3328.86,1464.39L3328.86,1432Z" style="fill:rgb(196,3,1);"/>
                                </g>
                            </g>
                        </g>
                        <g>
                            <g transform="matrix(1.66373,0,0,1.66373,-1493.84,17.1437)">
                                <g transform="matrix(1.12592,0,0,0.785,-171.876,296.444)">
                                    <rect x="1400.53" y="1378" width="430.473" height="40" style="fill:rgb(196,3,1);"/>
                                </g>
                                <g transform="matrix(1.12592,0,0,0.785,1372.12,296.444)">
                                    <rect x="1365" y="1378" width="430.473" height="40" style="fill:rgb(196,3,1);"/>
                                </g>
                            </g>
                            <g transform="matrix(1.66373,0,0,1.66373,-1493.84,17.1437)">
                                <g transform="matrix(2.87719,0,0,0.586762,-2235.74,510.64)">
                                    <rect x="1204.9" y="1235.71" width="214.098" height="53.514" style="fill:rgb(196,3,1);"/>
                                </g>
                                <g transform="matrix(2.87719,0,0,0.586762,-468.737,510.64)">
                                    <rect x="1191" y="1235.71" width="214.098" height="53.514" style="fill:rgb(196,3,1);"/>
                                </g>
                            </g>
                            <g transform="matrix(1.66373,0,0,1.66373,-1493.84,17.1437)">
                                <g transform="matrix(1.4682,0,0,1,-716.239,0)">
                                    <rect x="1557.24" y="1520.59" width="299.756" height="31.41" style="fill:rgb(196,3,1);"/>
                                </g>
                                <g transform="matrix(1.4682,0,0,1,543.761,0)">
                                    <rect x="1530" y="1520.59" width="299.756" height="31.41" style="fill:rgb(196,3,1);"/>
                                </g>
                            </g>
                        </g>
                    </g>
                </g>
            </g>
        </g>
    </g>
</svg>
