<?xml version="1.0" encoding="UTF-8" standalone="no"?>
<!DOCTYPE svg PUBLIC "-//W3C//DTD SVG 1.1//EN" "http://www.w3.org/Graphics/SVG/1.1/DTD/svg11.dtd">
<svg width="100%" height="100%" viewBox="0 0 1015 966" version="1.1" xmlns="http://www.w3.org/2000/svg" xmlns:xlink="http://www.w3.org/1999/xlink" xml:space="preserve" xmlns:serif="http://www.serif.com/" style="fill-rule:evenodd;clip-rule:evenodd;stroke-linejoin:round;stroke-miterlimit:2;">
    <g transform="matrix(1,0,0,1,-35,-2311)">
        <g id="Right-Sleve" serif:id="Right Sleve" transform="matrix(1,0,0,1,-1901.15,2018.14)">
            <rect x="1936.89" y="293.43" width="1013.73" height="965.269" style="fill:none;"/>
            <clipPath id="_clip1">
                <rect x="1936.89" y="293.43" width="1013.73" height="965.269"/>
            </clipPath>
            <g clip-path="url(#_clip1)">
                <g transform="matrix(-0.782292,4.09257,4.09257,0.782292,2223.7,827.404)">
                    <path d="M4.641,-6.375L11.267,-6.375L3.715,4.807C2.227,3.716 0.653,2.768 -0.999,1.984L4.641,-6.375Z" style="fill:rgb(187,189,192);fill-rule:nonzero;"/>
                </g>
                <g transform="matrix(4.16667,0,0,4.16667,2818.23,783.531)">
                    <path d="M0,-9.828L0,-9.848L-0.01,-9.836L-50.205,-57.818L-67.09,-40.232C-74.065,-42.931 -85.035,-45.1 -93.373,-45.1C-105.502,-45.1 -118.007,-40.958 -126.74,-35.553L-150.283,-57.864L-150.279,-57.889L-150.306,-57.887L-150.322,-57.902L-150.325,-57.884L-158.745,-57.002L-176.92,42.52L-168.46,43.401L-168.455,43.372L-130.103,26.597C-130.041,26.651 -129.983,26.709 -129.921,26.765C-120.796,34.815 -107.099,39.941 -91.78,39.941C-81.151,39.941 -71.31,37.467 -63.228,33.267L-47.809,48.074L0,-1.717L0,-9.816L0.005,-9.822L0,-9.828ZM-93.775,-43.199C-85.857,-43.199 -75.269,-41.166 -68.547,-38.715L-68.85,-38.399L-76.313,-30.63L-76.338,-30.604C-81.03,-32.173 -86.259,-33.056 -91.78,-33.056C-101.418,-33.056 -110.17,-30.378 -116.677,-26.02L-116.774,-26.111L-124.601,-33.528L-125.299,-34.19C-116.743,-39.355 -105.644,-43.199 -93.775,-43.199M-83.262,-23.389L-97.86,-8.183L-110.684,-20.338C-105.175,-22.732 -98.707,-24.121 -91.78,-24.121C-88.845,-24.121 -85.995,-23.86 -83.262,-23.389M-168.08,41.286L-150.58,-56.205L-125.597,-32.528L-117.771,-25.113L-111.79,-19.444L-97.592,-5.907L-97.592,0.268L-91.557,6.066L-110.411,14.648C-114.671,12.844 -118.378,10.43 -121.272,7.541C-121.338,7.476 -121.391,7.402 -121.456,7.336L-106.989,0.579L-141.013,-31.104L-141.684,-31.779L-142.496,-27.392L-150.531,14.488L-151.776,20.996L-149.645,20.083L-149.636,20.031L-138.707,15.348C-136.999,18.95 -134.55,22.297 -131.499,25.289L-168.08,41.286ZM-88.496,9.006L-80.349,16.829C-84.146,17.758 -88.096,18.232 -92.096,18.232C-97.094,18.232 -101.929,17.515 -106.466,16.101C-107.072,15.912 -107.662,15.704 -108.25,15.493L-90.197,7.373L-88.496,9.006ZM-124.463,3.621C-124.55,3.489 -124.659,3.364 -124.743,3.23C-125.94,1.33 -126.798,-0.664 -127.296,-2.687C-127.348,-2.901 -127.369,-3.115 -127.412,-3.329C-126.835,-5.368 -125.918,-7.319 -124.712,-9.156L-115.232,0.221L-124.463,3.621ZM-142.661,-0.957C-142.651,-0.9 -142.635,-0.845 -142.625,-0.786C-142.645,-0.56 -142.662,-0.348 -142.662,-0.178C-142.662,2.22 -141.191,7.913 -140.597,10.185C-140.597,10.188 -140.595,10.189 -140.595,10.192L-148.392,13.526L-140.957,-25.227L-137.903,-22.206C-141.314,-17.008 -143.055,-11.426 -143.055,-5.603C-143.055,-4.093 -142.926,-2.573 -142.661,-0.957M-64.305,24.177C-66.134,25.108 -68.074,25.951 -70.075,26.69C-76.946,29.227 -84.356,30.514 -92.096,30.514C-103.068,30.514 -113.455,27.905 -122.13,22.968C-126.925,20.238 -130.953,16.929 -134.101,13.131C-135.305,11.675 -136.369,10.16 -137.264,8.626C-139.114,5.473 -140.333,2.15 -140.889,-1.249C-141.14,-2.765 -141.262,-4.19 -141.262,-5.603C-141.262,-10.858 -139.754,-15.918 -136.779,-20.658L-128.798,-12.58C-129.341,-10.727 -129.615,-8.843 -129.615,-6.971C-129.615,-5.415 -129.42,-3.83 -129.039,-2.263C-128.496,-0.046 -127.56,2.122 -126.261,4.186C-125.233,5.819 -123.981,7.376 -122.54,8.812C-118.58,12.767 -113.207,15.88 -106.999,17.814C-102.291,19.282 -97.275,20.027 -92.096,20.027C-87.914,20.027 -83.781,19.531 -79.812,18.546C-77.551,17.982 -75.37,17.265 -73.332,16.419C-68.635,14.464 -64.501,11.74 -61.374,8.539C-58.2,5.282 -56.109,1.648 -55.155,-2.264C-54.77,-3.841 -54.574,-5.426 -54.574,-6.971C-54.574,-11.416 -56.249,-16.448 -58.978,-20.294L-52.188,-27.367C-46.376,-21.309 -42.932,-13.239 -42.932,-5.603C-42.932,-4.2 -43.056,-2.734 -43.301,-1.249C-44.35,5.155 -47.749,11.256 -53.131,16.393C-56.284,19.406 -60.044,22.025 -64.305,24.177M-62.337,6.937L-74.179,-4.596L-64.149,-15.043C-60.581,-12.069 -57.941,-8.515 -56.546,-4.609C-56.632,-3.971 -56.741,-3.33 -56.898,-2.687C-57.742,0.771 -59.578,4.004 -62.337,6.937M-41.483,-1.331C-41.261,-2.784 -41.135,-4.222 -41.135,-5.603C-41.135,-13.742 -44.821,-22.322 -51.013,-28.721L-49.401,-30.402L-24.314,-6.313L-45.086,15.316C-42.88,10.188 -41.454,3.86 -41.454,-0.677C-41.454,-0.87 -41.465,-1.092 -41.483,-1.331M-47.809,39.941L-58.005,30.151C-53.997,27.407 -50.604,24.189 -47.992,20.606C-47.957,20.558 -47.924,20.502 -47.889,20.452L-23.09,-5.295L-22.353,-6.09L-19.116,-9.459L-49.401,-38.533L-56.207,-31.448L-63.715,-23.625L-68.829,-18.297L-78.473,-8.254L-78.467,-8.248L-79.302,-7.379L-76.489,-4.686L-63.44,8.038C-66.296,10.741 -69.925,13.057 -74.022,14.762C-74.023,14.763 -74.027,14.763 -74.029,14.764L-82.642,6.498L-91.095,-1.624L-96.849,-7.076L-83.178,-21.316L-76.313,-28.469L-68.85,-36.239L-50.205,-55.658L-1.121,-8.679L-47.809,39.941Z" style="fill:rgb(35,31,32);fill-rule:nonzero;"/>
                </g>
                <g transform="matrix(4.16667,0,0,4.16667,2028.05,1254.11)">
                    <path d="M0,-57.329L39.508,-57.329L35.788,-42.116L16.852,-42.116L14.979,-34.122L34.733,-34.122L31.294,-20.026L11.796,-20.026L7.115,0L-13.294,0L0,-57.329Z" style="fill:rgb(35,31,32);fill-rule:nonzero;"/>
                </g>
                <g transform="matrix(4.16667,0,0,4.16667,2215.04,1254.11)">
                    <path d="M0,-57.329L20.409,-57.329L7.115,0L-13.294,0L0,-57.329Z" style="fill:rgb(35,31,32);fill-rule:nonzero;"/>
                </g>
                <g transform="matrix(4.16667,0,0,4.16667,2322.33,1248.03)">
                    <path d="M0,-55.524L1.311,-55.696C7.864,-56.47 16.01,-56.985 20.503,-56.985C27.992,-56.985 33.797,-56.126 38.198,-54.322C43.815,-52 47.185,-46.929 47.185,-40.827C47.185,-35.584 45.406,-30.599 42.035,-26.731C39.132,-23.379 36.513,-21.747 31.082,-20.113L29.771,-19.683C30.333,-19.253 30.52,-19.081 30.801,-18.823C32.393,-17.019 37.168,-7.736 41.194,1.461L18.724,1.461C15.822,-6.704 14.979,-8.853 11.141,-18.136L6.647,1.461L-13.2,1.461L0,-55.524ZM15.073,-28.535C21.627,-28.535 26.213,-32.404 26.213,-37.904C26.213,-40.827 24.06,-42.287 19.847,-42.287C18.631,-42.287 17.976,-42.202 16.665,-41.944L13.575,-28.708C14.23,-28.622 14.324,-28.535 15.073,-28.535" style="fill:rgb(35,31,32);fill-rule:nonzero;"/>
                </g>
                <g transform="matrix(4.16667,0,0,4.16667,2720.81,1254.11)">
                    <path d="M0,-57.329L49.52,-57.329L46.06,-40.733L31.364,-40.733L21.627,0L1.217,0L10.954,-40.733L-4.977,-40.733L0,-57.329Z" style="fill:rgb(35,31,32);fill-rule:nonzero;"/>
                </g>
                <g transform="matrix(4.16667,0,0,4.16667,2850.72,1252.89)">
                    <path d="M0,-9.95C2.751,-9.95 4.984,-7.736 4.984,-4.985C4.984,-2.214 2.771,0 0,0C-2.79,0 -4.965,-2.176 -4.965,-4.985C-4.965,-7.755 -2.771,-9.95 0,-9.95M0,-0.616C2.425,-0.616 4.369,-2.56 4.369,-4.965C4.369,-7.39 2.425,-9.334 0,-9.334C-2.406,-9.334 -4.349,-7.39 -4.349,-4.985C-4.349,-2.541 -2.424,-0.616 0,-0.616M-1.924,-7.525C-1.673,-7.544 -1.635,-7.563 -1.135,-7.602C-0.635,-7.641 -0.423,-7.66 -0.212,-7.66C1.424,-7.66 2.232,-7.025 2.232,-5.812C2.232,-5.082 1.925,-4.639 1.27,-4.388L1.193,-4.369C1.25,-4.33 1.27,-4.311 1.289,-4.273C1.462,-4.119 2.04,-3.253 2.521,-2.464L0.655,-2.464C0.27,-3.176 0.154,-3.369 -0.327,-4.176L-0.327,-2.464L-1.924,-2.464L-1.924,-7.525ZM-0.134,-5.138C0.308,-5.138 0.558,-5.35 0.558,-5.754C0.558,-6.14 0.326,-6.352 -0.115,-6.352C-0.212,-6.352 -0.231,-6.352 -0.327,-6.332L-0.327,-5.158C-0.251,-5.138 -0.212,-5.138 -0.134,-5.138" style="fill:rgb(35,31,32);fill-rule:nonzero;"/>
                </g>
                <g transform="matrix(4.16667,0,0,4.16667,2502.34,1021.67)">
                    <path d="M0,54.328C5.738,56.033 12.013,56.989 17.875,56.989C25.833,56.989 31.919,55.184 37.161,51.402C42.965,47.276 46.71,40.916 46.71,35.158C46.71,31.289 45.026,27.765 42.03,25.272C39.689,23.383 37.255,21.92 32.293,19.6L28.268,17.71C26.956,17.021 26.301,16.334 26.301,15.561C26.301,13.497 28.923,11.952 32.48,11.952C35.142,11.952 38.314,12.725 44.375,14.707L48.559,-0.812C44.026,-2.044 39.608,-2.661 35.195,-2.661C18.531,-2.661 5.705,6.449 5.705,18.224C5.705,24.413 9.823,28.796 20.122,33.61C24.99,35.845 25.833,36.447 25.833,37.994C25.833,40.314 23.305,41.776 19.186,41.776C15.535,41.776 10.855,40.658 4.487,38.337L4.479,38.339L0,54.328Z" style="fill:rgb(35,31,32);fill-rule:nonzero;"/>
                </g>
                <g transform="matrix(4.16667,0,0,4.16667,1952.3,343.849)">
                    <path d="M0,19.391L38.828,19.391L39.968,15.392L11.148,15.392C9.755,15.392 8.54,15.078 7.506,14.449C6.471,13.821 5.658,12.978 5.067,11.921C4.475,10.864 4.127,9.619 4.022,8.186C3.916,6.752 4.095,5.232 4.561,3.62L5.637,-0.227C6.101,-1.837 6.809,-3.359 7.759,-4.792C8.71,-6.226 9.786,-7.471 10.99,-8.528C12.193,-9.583 13.492,-10.425 14.885,-11.054C16.279,-11.683 17.672,-11.997 19.066,-11.997L62.645,-11.997L59.161,-0.001L20.333,-0.001L19.192,4.073L48.013,4.073C49.407,4.073 50.62,4.376 51.655,4.98C52.689,5.582 53.502,6.413 54.094,7.469C54.685,8.526 55.033,9.771 55.139,11.204C55.244,12.638 55.065,14.16 54.601,15.768L53.524,19.617C53.059,21.227 52.352,22.748 51.402,24.182C50.452,25.615 49.375,26.861 48.172,27.916C46.968,28.973 45.67,29.816 44.276,30.444C42.883,31.074 41.489,31.388 40.096,31.388L-3.484,31.388L0,19.391Z" style="fill:rgb(35,31,32);fill-rule:nonzero;"/>
                </g>
                <g transform="matrix(4.16667,0,0,4.16667,2377.48,403.581)">
                    <path d="M0,-9.281L1.457,-14.337L-22.613,-14.337L-31.671,17.052L-46.493,17.052L-33.951,-26.333L8.488,-26.333C9.882,-26.333 11.169,-26.043 12.352,-25.466C13.534,-24.888 14.505,-24.081 15.266,-23.051C16.026,-22.02 16.522,-20.788 16.754,-19.354C16.986,-17.921 16.849,-16.348 16.342,-14.638L14.886,-9.582C14.42,-7.973 13.639,-6.452 12.542,-5.018C11.443,-3.585 10.208,-2.34 8.836,-1.283C7.463,-0.227 6.018,0.616 4.498,1.245C2.977,1.874 1.562,2.188 0.254,2.188L-21.22,2.188L-17.926,-9.281L0,-9.281Z" style="fill:rgb(35,31,32);fill-rule:nonzero;"/>
                </g>
                <g transform="matrix(4.16667,0,0,4.16667,2523.43,403.581)">
                    <path d="M0,-9.281L24.006,-9.281L28.947,-26.333L43.706,-26.333L31.164,17.052L16.406,17.052L20.713,2.112L-3.294,2.112L-7.601,17.052L-22.423,17.052L-9.882,-26.333L4.941,-26.333L0,-9.281Z" style="fill:rgb(35,31,32);fill-rule:nonzero;"/>
                </g>
                <g transform="matrix(4.16667,0,0,4.16667,2690.49,343.849)">
                    <path d="M0,19.391L38.828,19.391L39.968,15.392L11.148,15.392C9.755,15.392 8.54,15.078 7.506,14.449C6.471,13.821 5.658,12.978 5.067,11.921C4.475,10.864 4.127,9.619 4.022,8.186C3.916,6.752 4.095,5.232 4.561,3.62L5.637,-0.227C6.101,-1.837 6.809,-3.359 7.759,-4.792C8.71,-6.226 9.786,-7.471 10.99,-8.528C12.193,-9.583 13.492,-10.425 14.885,-11.054C16.279,-11.683 17.672,-11.997 19.066,-11.997L62.645,-11.997L59.161,-0.001L20.333,-0.001L19.192,4.073L48.013,4.073C49.407,4.073 50.62,4.376 51.655,4.98C52.689,5.582 53.502,6.413 54.094,7.469C54.685,8.526 55.033,9.771 55.139,11.204C55.244,12.638 55.065,14.16 54.601,15.768L53.524,19.617C53.059,21.227 52.352,22.748 51.402,24.182C50.452,25.615 49.375,26.861 48.172,27.916C46.968,28.973 45.67,29.816 44.276,30.444C42.883,31.074 41.489,31.388 40.096,31.388L-3.484,31.388L0,19.391Z" style="fill:rgb(35,31,32);fill-rule:nonzero;"/>
                </g>
            </g>
        </g>
    </g>
</svg>
